<svg id="Layer_1" data-name="Layer 1" xmlns="http://www.w3.org/2000/svg" viewBox="0 0 304 304"><defs><style>.cls-1{fill:#e87722;}.cls-2{fill:#fff;}</style></defs><title>Eleos_Logo_Main_Tech_RGB</title><path class="cls-1" d="M302,152A150,150,0,1,1,152,2,150,150,0,0,1,302,152"/><path class="cls-2" d="M80.14,151.93a33.45,33.45,0,0,1-9.81,5.68,33.31,33.31,0,0,1-11.2,1.79,29,29,0,0,1-11-2.09,27.77,27.77,0,0,1-8.87-5.68,26,26,0,0,1-5.87-8.51,26.33,26.33,0,0,1-2.14-10.61,27.23,27.23,0,0,1,2-10.51,26.47,26.47,0,0,1,24.65-16.39,24.43,24.43,0,0,1,10.21,2.15,25.32,25.32,0,0,1,8.17,5.82,26.69,26.69,0,0,1,5.38,8.82,31.2,31.2,0,0,1,1.94,11.1v3.59H45A14.56,14.56,0,0,0,50.36,145a15.19,15.19,0,0,0,9.36,3,18.4,18.4,0,0,0,6.38-1.1,14.53,14.53,0,0,0,5.08-3.09ZM57.63,116.87a12.18,12.18,0,0,0-8.07,2.84,14.63,14.63,0,0,0-4.68,7.62h25.4a15,15,0,0,0-4.73-7.52A11.82,11.82,0,0,0,57.63,116.87Z"/><path class="cls-2" d="M103.9,85.69v72.72H90.25V88.68Z"/><path class="cls-2" d="M225.26,152.23l6.77-9.06a41.44,41.44,0,0,0,8.67,4.43,24.39,24.39,0,0,0,8.17,1.44,15.29,15.29,0,0,0,7.32-1.49c1.82-1,2.74-2.32,2.74-4a3.82,3.82,0,0,0-1.55-3.18,10.78,10.78,0,0,0-4.93-1.7l-10-1.49q-7.67-1.2-11.7-5a13.14,13.14,0,0,1-4-10.06,14.25,14.25,0,0,1,5.87-12q5.88-4.49,15.74-4.49a37.51,37.51,0,0,1,11.06,1.65,40,40,0,0,1,10.26,4.83L263.11,121a41.58,41.58,0,0,0-8.17-3.73,25.64,25.64,0,0,0-7.87-1.25,11.08,11.08,0,0,0-5.92,1.4,4.19,4.19,0,0,0-2.24,3.68,3.72,3.72,0,0,0,1.64,3.24,12.86,12.86,0,0,0,5.43,1.64l10,1.5q7.57,1.09,11.7,5a12.94,12.94,0,0,1,4.14,9.86,13.72,13.72,0,0,1-1.75,6.82,17.45,17.45,0,0,1-4.73,5.43,22.54,22.54,0,0,1-7.17,3.59,30.62,30.62,0,0,1-9.06,1.29,46.07,46.07,0,0,1-13.25-1.84A30.88,30.88,0,0,1,225.26,152.23Z"/><path class="cls-2" d="M220.53,121.9a26.72,26.72,0,0,0-5.88-8.57,27.52,27.52,0,0,0-8.81-5.72,29.13,29.13,0,0,0-21.72,0,24.93,24.93,0,0,0-8.71,6.49c-4.1,4.41-8.24,10.36-11.36,14.52-4.25,5.68-7.86,11-12.69,14.75a23.69,23.69,0,0,1-6,3.48A18.44,18.44,0,0,1,139,148a15.17,15.17,0,0,1-9.36-3,14.56,14.56,0,0,1-5.38-7.87h24.16l12-16.26a27.42,27.42,0,0,0-4.82-7.25,24.19,24.19,0,0,0-8.17-5.82,24.43,24.43,0,0,0-10.21-2.15,26.55,26.55,0,0,0-10.51,2.1,26.23,26.23,0,0,0-8.52,5.72,26.51,26.51,0,0,0-5.62,8.57,27,27,0,0,0-2,10.51,26.34,26.34,0,0,0,2.15,10.61,26,26,0,0,0,5.87,8.51,27.77,27.77,0,0,0,8.87,5.68,29,29,0,0,0,11,2.09,33.33,33.33,0,0,0,11.21-1.79,32.77,32.77,0,0,0,10.62-6.07c4.31-3.52,6-6.39,11.82-13.75,4.69-6,8.45-12.21,12.81-16,3.29-2.89,6.18-4.38,10.16-4.38a13.52,13.52,0,0,1,10.16,4.38,15.81,15.81,0,0,1,0,21.42A13.52,13.52,0,0,1,195,147.55c-4,0-8-2.16-11-4.57a28.81,28.81,0,0,1-3.86-3.5l-7.19,9.61a28.92,28.92,0,0,0,2.4,2.54,27.93,27.93,0,0,0,8.81,5.68,29.26,29.26,0,0,0,21.72,0,27.93,27.93,0,0,0,8.81-5.68,27,27,0,0,0,5.88-29.73Zm-91.73-2.19a12.18,12.18,0,0,1,8.07-2.84,11.82,11.82,0,0,1,7.92,2.94,15,15,0,0,1,4.73,7.52h-25.4A14.57,14.57,0,0,1,128.8,119.71Z"/><path class="cls-2" d="M37.19,192.46v-9.92h-4.1v-4.41h4.1V173l5.25-1.18v6.28h5.67v4.41H42.44v8.85a2.65,2.65,0,0,0,.62,2,3.12,3.12,0,0,0,2.14.57,10,10,0,0,0,1.38-.09,8.31,8.31,0,0,0,1.42-.37v4.29a13.24,13.24,0,0,1-2,.45,15.2,15.2,0,0,1-2,.17,7.35,7.35,0,0,1-5-1.52A5.58,5.58,0,0,1,37.19,192.46Z"/><path class="cls-2" d="M68.72,195.6A12.45,12.45,0,0,1,65,197.78a12.78,12.78,0,0,1-4.31.69,11.07,11.07,0,0,1-4.24-.8A10.83,10.83,0,0,1,53,195.49a10.22,10.22,0,0,1-2.26-3.28,10.08,10.08,0,0,1-.82-4.08,10.32,10.32,0,0,1,.79-4,9.92,9.92,0,0,1,5.44-5.5,10.16,10.16,0,0,1,4-.81,9.45,9.45,0,0,1,3.93.83,9.68,9.68,0,0,1,3.14,2.24,10.16,10.16,0,0,1,2.07,3.39,12.16,12.16,0,0,1,.74,4.27v1.38H55.2a5.55,5.55,0,0,0,2.07,3,5.8,5.8,0,0,0,3.6,1.15,7.09,7.09,0,0,0,2.45-.42,5.47,5.47,0,0,0,1.95-1.19Zm-8.66-13.49a4.67,4.67,0,0,0-3.1,1.1,5.55,5.55,0,0,0-1.8,2.93h9.77a5.8,5.8,0,0,0-1.82-2.9A4.57,4.57,0,0,0,60.06,182.11Z"/><path class="cls-2" d="M83.16,193.88a5.9,5.9,0,0,0,2.51-.54,7.15,7.15,0,0,0,2.24-1.69l3.15,3.26a10.79,10.79,0,0,1-3.68,2.63,11.06,11.06,0,0,1-4.45.93,10.58,10.58,0,0,1-4.12-.8,10.34,10.34,0,0,1-3.33-2.18,10.07,10.07,0,0,1-2.2-3.28,10.3,10.3,0,0,1,5.53-13.66,10.58,10.58,0,0,1,4.12-.8,11.48,11.48,0,0,1,4.56.93,10.7,10.7,0,0,1,3.72,2.63L88,184.72a7.8,7.8,0,0,0-2.3-1.8,5.82,5.82,0,0,0-2.64-.61A5,5,0,0,0,79.24,184a5.89,5.89,0,0,0-1.56,4.14,5.68,5.68,0,0,0,1.59,4.1A5.2,5.2,0,0,0,83.16,193.88Z"/><path class="cls-2" d="M93.94,198.09V171.27l5.25-1.15v9.58a8.53,8.53,0,0,1,2.55-1.46,9.08,9.08,0,0,1,3.05-.49,7.6,7.6,0,0,1,7.89,7.93v12.41h-5.25V186.44a4.12,4.12,0,0,0-1.13-3,4,4,0,0,0-3-1.15,5.37,5.37,0,0,0-2.36.51,4.69,4.69,0,0,0-1.74,1.48v13.83Z"/><path class="cls-2" d="M117.1,198.09v-20h5.24v1.57a8.53,8.53,0,0,1,2.55-1.46,9.08,9.08,0,0,1,3-.49,7.6,7.6,0,0,1,7.89,7.93v12.41h-5.25V186.44a4.08,4.08,0,0,0-1.13-3,4,4,0,0,0-3-1.15,5.33,5.33,0,0,0-2.35.51,4.72,4.72,0,0,0-1.75,1.48v13.83Z"/><path class="cls-2" d="M139.06,188.13a10.28,10.28,0,0,1,3.09-7.38,10.5,10.5,0,0,1,3.39-2.2,11,11,0,0,1,11.74,2.2,10.26,10.26,0,0,1,2.26,3.3,10.28,10.28,0,0,1-2.26,11.44,11.16,11.16,0,0,1-11.74,2.18,10.62,10.62,0,0,1-3.39-2.18,9.92,9.92,0,0,1-2.26-3.28A10.09,10.09,0,0,1,139.06,188.13Zm10.65,5.79a5.21,5.21,0,0,0,3.91-1.69,5.72,5.72,0,0,0,1.61-4.1,5.8,5.8,0,0,0-1.61-4.14,5.38,5.38,0,0,0-7.81,0,5.76,5.76,0,0,0-1.61,4.14,5.68,5.68,0,0,0,1.61,4.1A5.2,5.2,0,0,0,149.71,193.92Z"/><path class="cls-2" d="M169.05,170.12v28H163.8V171.27Z"/><path class="cls-2" d="M172.48,188.13a10.08,10.08,0,0,1,.82-4.08,10.42,10.42,0,0,1,2.26-3.3,10.85,10.85,0,0,1,7.57-3,10.8,10.8,0,0,1,7.57,3,10.26,10.26,0,0,1,2.26,3.3,10.28,10.28,0,0,1-2.26,11.44,11.06,11.06,0,0,1-15.14,0,10.22,10.22,0,0,1-2.26-3.28A10.08,10.08,0,0,1,172.48,188.13Zm10.65,5.79a5.22,5.22,0,0,0,3.91-1.69,5.72,5.72,0,0,0,1.61-4.1A5.8,5.8,0,0,0,187,184a5.39,5.39,0,0,0-7.82,0,5.8,5.8,0,0,0-1.61,4.14,5.72,5.72,0,0,0,1.61,4.1A5.24,5.24,0,0,0,183.13,193.92Z"/><path class="cls-2" d="M206.29,198.21a10.1,10.1,0,0,1-7.18-3,10.25,10.25,0,0,1-2.94-7.24,9.82,9.82,0,0,1,.81-4,10.38,10.38,0,0,1,2.18-3.24,10,10,0,0,1,3.26-2.16,10.19,10.19,0,0,1,4-.79,9.65,9.65,0,0,1,2.86.42,11,11,0,0,1,2.55,1.19v-1.3H217v20a7.52,7.52,0,0,1-2.55,6.09c-1.7,1.43-4.14,2.15-7.34,2.15a20.65,20.65,0,0,1-4.42-.46,16.35,16.35,0,0,1-3.89-1.34l1.84-4.1a16.8,16.8,0,0,0,3.22,1.21,12.93,12.93,0,0,0,3.14.4,5.34,5.34,0,0,0,3.54-1,3.63,3.63,0,0,0,1.21-3v-1.64a9.18,9.18,0,0,1-5.48,1.8ZM201.35,188a5.62,5.62,0,0,0,1.66,4.1,5.55,5.55,0,0,0,4.08,1.68,6.89,6.89,0,0,0,2.61-.48,6.54,6.54,0,0,0,2.07-1.32v-7.85a5.81,5.81,0,0,0-2.07-1.33,7.18,7.18,0,0,0-2.57-.47A5.68,5.68,0,0,0,203,184,5.43,5.43,0,0,0,201.35,188Z"/><path class="cls-2" d="M224.15,175.75a3,3,0,1,1,2.1-.88A2.85,2.85,0,0,1,224.15,175.75Zm2.64,2.38v20h-5.25v-20Z"/><path class="cls-2" d="M249,195.6a12.45,12.45,0,0,1-3.77,2.18,12.78,12.78,0,0,1-4.31.69,11.07,11.07,0,0,1-4.24-.8,10.83,10.83,0,0,1-3.41-2.18,10.12,10.12,0,0,1-3.08-7.36,10.5,10.5,0,0,1,.78-4,10.24,10.24,0,0,1,2.17-3.3,10.34,10.34,0,0,1,7.32-3,9.37,9.37,0,0,1,3.92.83,9.72,9.72,0,0,1,3.15,2.24,10,10,0,0,1,2.06,3.39,11.94,11.94,0,0,1,.75,4.27v1.38H235.44a5.59,5.59,0,0,0,2.06,3,5.85,5.85,0,0,0,3.61,1.15,7.13,7.13,0,0,0,2.45-.42,5.56,5.56,0,0,0,1.95-1.19Zm-8.66-13.49a4.67,4.67,0,0,0-3.1,1.1,5.55,5.55,0,0,0-1.8,2.93h9.77a5.8,5.8,0,0,0-1.82-2.9A4.57,4.57,0,0,0,240.3,182.11Z"/><path class="cls-2" d="M252,195.72l2.6-3.49a15.74,15.74,0,0,0,3.34,1.7,9.33,9.33,0,0,0,3.14.56,5.91,5.91,0,0,0,2.81-.57,1.73,1.73,0,0,0,1.06-1.54,1.45,1.45,0,0,0-.6-1.22,4,4,0,0,0-1.89-.65l-3.83-.58a8.29,8.29,0,0,1-4.51-1.92,5.07,5.07,0,0,1-1.55-3.87,5.48,5.48,0,0,1,2.26-4.59,9.76,9.76,0,0,1,6.06-1.73,14.53,14.53,0,0,1,4.25.63,16.16,16.16,0,0,1,3.95,1.86l-2.53,3.37a16.56,16.56,0,0,0-3.15-1.43,9.78,9.78,0,0,0-3-.48,4.23,4.23,0,0,0-2.28.54,1.59,1.59,0,0,0-.86,1.41,1.43,1.43,0,0,0,.63,1.25,5,5,0,0,0,2.09.63l3.83.58a8.05,8.05,0,0,1,4.5,1.91,5,5,0,0,1,1.59,3.79,5.3,5.3,0,0,1-.67,2.63,6.82,6.82,0,0,1-1.82,2.09,8.93,8.93,0,0,1-2.76,1.38,11.82,11.82,0,0,1-3.49.49,17.79,17.79,0,0,1-5.09-.7A12,12,0,0,1,252,195.72Z"/></svg>