<svg id="Layer_1" data-name="Layer 1" xmlns="http://www.w3.org/2000/svg" viewBox="0 0 304 304"><defs><style>.cls-1{fill:#e87722;}.cls-2{fill:#fff;}</style></defs><title>Eleos_Logo_Main_RGB</title><path class="cls-1" d="M302,152A150,150,0,1,1,152,2,150,150,0,0,1,302,152"/><path class="cls-2" d="M80.64,171.92a33.46,33.46,0,0,1-9.82,5.67,33,33,0,0,1-11.2,1.8,28.78,28.78,0,0,1-11-2.1,27.69,27.69,0,0,1-8.86-5.67,26.32,26.32,0,0,1-8-19.13,27.23,27.23,0,0,1,2-10.51,26.49,26.49,0,0,1,5.63-8.56,26,26,0,0,1,8.52-5.73,26.46,26.46,0,0,1,10.5-2.09,24.39,24.39,0,0,1,10.21,2.14,25.24,25.24,0,0,1,8.17,5.83,26.38,26.38,0,0,1,5.38,8.81,31.22,31.22,0,0,1,1.94,11.11v3.58H45.48a14.51,14.51,0,0,0,5.37,7.87,15.2,15.2,0,0,0,9.37,3,18.15,18.15,0,0,0,6.37-1.1,14.28,14.28,0,0,0,5.08-3.08ZM58.12,136.85a12.14,12.14,0,0,0-8.06,2.84,14.61,14.61,0,0,0-4.68,7.62h25.4A15,15,0,0,0,66,139.79,11.82,11.82,0,0,0,58.12,136.85Z"/><path class="cls-2" d="M104.39,105.68v72.71H90.75V108.66Z"/><path class="cls-2" d="M225.75,172.21l6.78-9.06a41.14,41.14,0,0,0,8.66,4.43,24.25,24.25,0,0,0,8.17,1.45,15.25,15.25,0,0,0,7.32-1.5q2.74-1.49,2.74-4a3.83,3.83,0,0,0-1.54-3.19,10.72,10.72,0,0,0-4.93-1.69l-10-1.5q-7.68-1.18-11.71-5a13.12,13.12,0,0,1-4-10.06,14.27,14.27,0,0,1,5.88-11.95q5.87-4.49,15.73-4.48a37.83,37.83,0,0,1,11.06,1.64,40.35,40.35,0,0,1,10.26,4.83l-6.58,8.77a41.59,41.59,0,0,0-8.16-3.74,25.67,25.67,0,0,0-7.87-1.24,11.12,11.12,0,0,0-5.93,1.39A4.21,4.21,0,0,0,239.4,141a3.71,3.71,0,0,0,1.64,3.23,12.7,12.7,0,0,0,5.43,1.65l10,1.49q7.57,1.09,11.71,5a13,13,0,0,1,4.13,9.86,13.88,13.88,0,0,1-1.74,6.83,17.43,17.43,0,0,1-4.73,5.42,22.64,22.64,0,0,1-7.17,3.59,30.68,30.68,0,0,1-9.07,1.3,46.12,46.12,0,0,1-13.25-1.85A30.79,30.79,0,0,1,225.75,172.21Z"/><path class="cls-2" d="M221,141.88a26.65,26.65,0,0,0-5.87-8.56,27.32,27.32,0,0,0-8.82-5.73,29.23,29.23,0,0,0-21.71,0,24.75,24.75,0,0,0-8.71,6.49c-4.1,4.42-8.24,10.36-11.36,14.52-4.26,5.68-7.87,11-12.69,14.75a23.33,23.33,0,0,1-6,3.48,18.15,18.15,0,0,1-6.37,1.1,15.2,15.2,0,0,1-9.37-3,14.58,14.58,0,0,1-5.38-7.87h24.16l12-16.25a26.85,26.85,0,0,0-4.82-7.25,24.15,24.15,0,0,0-8.17-5.83,24.43,24.43,0,0,0-10.21-2.14,26.54,26.54,0,0,0-10.51,2.09,26.05,26.05,0,0,0-8.51,5.73A26.49,26.49,0,0,0,113,142a27.23,27.23,0,0,0-2,10.51,26.32,26.32,0,0,0,8,19.13,27.69,27.69,0,0,0,8.86,5.67,28.78,28.78,0,0,0,11,2.1,33,33,0,0,0,21.83-7.86c4.3-3.53,6-6.4,11.82-13.76,4.69-6,8.44-12.21,12.81-16,3.29-2.88,6.17-4.38,10.15-4.38a13.5,13.5,0,0,1,10.16,4.38,15,15,0,0,1,4.19,10.76,14.86,14.86,0,0,1-4.19,10.66,13.5,13.5,0,0,1-10.16,4.38c-4,0-8-2.16-11-4.57a30.09,30.09,0,0,1-3.86-3.5l-7.18,9.61a28.57,28.57,0,0,0,2.39,2.55,28.5,28.5,0,0,0,19.67,7.77,28.13,28.13,0,0,0,10.86-2.1,27.84,27.84,0,0,0,8.82-5.67,26.42,26.42,0,0,0,8-19.13A26.34,26.34,0,0,0,221,141.88Zm-91.72-2.19a12.14,12.14,0,0,1,8.06-2.84,11.82,11.82,0,0,1,7.92,2.94,15,15,0,0,1,4.73,7.52h-25.4A14.68,14.68,0,0,1,129.3,139.69Z"/></svg>