<svg id="Layer_1" data-name="Layer 1" xmlns="http://www.w3.org/2000/svg" viewBox="0 0 253.55 128.38"><defs><style>.cls-1{fill:#e87722;}</style></defs><title>Eleos_Logo_Worm_Tech_RGB</title><path class="cls-1" d="M54.06,69.37a33.77,33.77,0,0,1-9.94,5.75,33.47,33.47,0,0,1-11.36,1.82,29.09,29.09,0,0,1-11.15-2.12,28.06,28.06,0,0,1-9-5.75,26.34,26.34,0,0,1-6-8.63A26.65,26.65,0,0,1,4.5,49.69,27.54,27.54,0,0,1,6.57,39a26.94,26.94,0,0,1,5.7-8.68,26.39,26.39,0,0,1,8.63-5.8,26.86,26.86,0,0,1,10.65-2.12A24.78,24.78,0,0,1,41.9,24.61a25.55,25.55,0,0,1,8.27,5.9,26.76,26.76,0,0,1,5.45,8.93,31.39,31.39,0,0,1,2,11.26v3.63H18.43a14.77,14.77,0,0,0,5.45,8,15.41,15.41,0,0,0,9.49,3,18.43,18.43,0,0,0,6.46-1.11A14.81,14.81,0,0,0,45,61.1ZM31.25,33.84a12.31,12.31,0,0,0-8.18,2.88,14.77,14.77,0,0,0-4.74,7.72H44.07a15.32,15.32,0,0,0-4.8-7.62A12,12,0,0,0,31.25,33.84Z"/><path class="cls-1" d="M78.13,2.25V75.93H64.31V5.28Z"/><path class="cls-1" d="M201.11,69.67,208,60.49A41.32,41.32,0,0,0,216.76,65,24.53,24.53,0,0,0,225,66.44a15.5,15.5,0,0,0,7.42-1.51c1.85-1,2.78-2.35,2.78-4a3.88,3.88,0,0,0-1.57-3.23,10.89,10.89,0,0,0-5-1.71l-10.1-1.52c-5.18-.8-9.13-2.49-11.86-5a13.35,13.35,0,0,1-4.08-10.2,14.47,14.47,0,0,1,6-12.11q6-4.54,15.95-4.54a38.07,38.07,0,0,1,11.2,1.66,40.78,40.78,0,0,1,10.4,4.9L239.47,38a42.38,42.38,0,0,0-8.28-3.78,25.69,25.69,0,0,0-8-1.27,11.3,11.3,0,0,0-6,1.42,4.25,4.25,0,0,0-2.27,3.73,3.76,3.76,0,0,0,1.67,3.28,12.89,12.89,0,0,0,5.5,1.67l10.09,1.51q7.67,1.11,11.86,5.05a13.11,13.11,0,0,1,4.19,10,13.94,13.94,0,0,1-1.77,6.91A17.69,17.69,0,0,1,241.69,72a23,23,0,0,1-7.27,3.63,31,31,0,0,1-9.18,1.31,46.57,46.57,0,0,1-13.43-1.87A31.24,31.24,0,0,1,201.11,69.67Z"/><path class="cls-1" d="M196.32,38.94a27,27,0,0,0-6-8.68,27.72,27.72,0,0,0-8.93-5.8,29.6,29.6,0,0,0-22,0A25.18,25.18,0,0,0,150.6,31c-4.15,4.48-8.35,10.5-11.51,14.72-4.32,5.75-8,11.11-12.86,14.94a23.79,23.79,0,0,1-6.11,3.53,18.39,18.39,0,0,1-6.46,1.11,15.4,15.4,0,0,1-9.48-3,14.72,14.72,0,0,1-5.45-8H123.2l12.15-16.47a27.52,27.52,0,0,0-4.88-7.35,24.41,24.41,0,0,0-8.28-5.9,24.7,24.7,0,0,0-10.34-2.17,26.86,26.86,0,0,0-10.65,2.12,26.39,26.39,0,0,0-8.63,5.8A27,27,0,0,0,86.86,39,27.53,27.53,0,0,0,84.8,49.69,26.65,26.65,0,0,0,87,60.44a26.32,26.32,0,0,0,6,8.63,28.17,28.17,0,0,0,9,5.75,29.17,29.17,0,0,0,11.16,2.12,33.44,33.44,0,0,0,22.12-8c4.36-3.58,6.11-6.48,12-13.94,4.75-6,8.55-12.38,13-16.25,3.34-2.93,6.26-4.44,10.3-4.44a13.68,13.68,0,0,1,10.29,4.44A15.17,15.17,0,0,1,185,49.69a15,15,0,0,1-4.24,10.8,13.68,13.68,0,0,1-10.29,4.44c-4,0-8.12-2.19-11.17-4.63a29.59,29.59,0,0,1-3.91-3.55l-7.28,9.74a27.86,27.86,0,0,0,2.42,2.58,29.06,29.06,0,0,0,39.87,0,26.34,26.34,0,0,0,6-8.63,27.71,27.71,0,0,0,0-21.5Zm-92.95-2.22a12.28,12.28,0,0,1,8.17-2.88,12,12,0,0,1,8,3,15.23,15.23,0,0,1,4.79,7.62H98.62A14.85,14.85,0,0,1,103.37,36.72Z"/><path class="cls-1" d="M12.29,110.44V100.38H8.13V95.92h4.16V90.75l5.32-1.2v6.37h5.74v4.46H17.61v9a2.67,2.67,0,0,0,.62,2,3.15,3.15,0,0,0,2.17.58,10.4,10.4,0,0,0,1.4-.09,8.5,8.5,0,0,0,1.44-.37v4.35a12.65,12.65,0,0,1-2.06.44,14.23,14.23,0,0,1-2.06.18A7.47,7.47,0,0,1,14,114.92,5.67,5.67,0,0,1,12.29,110.44Z"/><path class="cls-1" d="M44.24,113.62a13.21,13.21,0,0,1-3.83,2.22,13.09,13.09,0,0,1-4.37.7,11.37,11.37,0,0,1-4.29-.82,10.8,10.8,0,0,1-3.45-2.21,10.3,10.3,0,0,1-3.13-7.46A10.58,10.58,0,0,1,26,102a10.14,10.14,0,0,1,5.51-5.58,10.45,10.45,0,0,1,4.1-.81,9.65,9.65,0,0,1,4,.83,10,10,0,0,1,3.18,2.27,10.39,10.39,0,0,1,2.1,3.44,12.24,12.24,0,0,1,.76,4.33v1.4H30.53a5.66,5.66,0,0,0,2.1,3.07,5.94,5.94,0,0,0,3.65,1.16,7,7,0,0,0,2.48-.43,5.48,5.48,0,0,0,2-1.2ZM35.46,100a4.77,4.77,0,0,0-3.14,1.1,5.75,5.75,0,0,0-1.83,3h9.9a5.85,5.85,0,0,0-1.84-2.93A4.62,4.62,0,0,0,35.46,100Z"/><path class="cls-1" d="M58.87,111.88a5.89,5.89,0,0,0,2.54-.55,7.18,7.18,0,0,0,2.27-1.71l3.19,3.3a10.83,10.83,0,0,1-3.73,2.66,11,11,0,0,1-4.5,1,10.85,10.85,0,0,1-4.18-.82,10.19,10.19,0,0,1-5.61-5.53,11,11,0,0,1,0-8.27,10.43,10.43,0,0,1,2.24-3.34,10.17,10.17,0,0,1,3.37-2.23,10.67,10.67,0,0,1,4.18-.82,11.68,11.68,0,0,1,4.62,1A10.8,10.8,0,0,1,67,99.14l-3.26,3.46a7.87,7.87,0,0,0-2.33-1.83,6,6,0,0,0-2.68-.62,5.05,5.05,0,0,0-3.86,1.71,6,6,0,0,0-1.57,4.19,5.74,5.74,0,0,0,1.61,4.16A5.27,5.27,0,0,0,58.87,111.88Z"/><path class="cls-1" d="M69.79,116.15V89l5.32-1.17v9.71A8.53,8.53,0,0,1,77.69,96a9.36,9.36,0,0,1,3.09-.5,7.71,7.71,0,0,1,8,8v12.58H83.46V104.34a4.15,4.15,0,0,0-1.15-3.06,4.06,4.06,0,0,0-3-1.17,5.34,5.34,0,0,0-2.39.53,4.72,4.72,0,0,0-1.77,1.49v14Z"/><path class="cls-1" d="M93.25,116.15V95.92h5.32v1.59A8.46,8.46,0,0,1,101.16,96a9.25,9.25,0,0,1,3.08-.5,7.71,7.71,0,0,1,8,8v12.58h-5.32V104.34a4.18,4.18,0,0,0-1.14-3.06,4.08,4.08,0,0,0-3-1.17,5.34,5.34,0,0,0-2.39.53,4.72,4.72,0,0,0-1.77,1.49v14Z"/><path class="cls-1" d="M115.51,106.05a10.39,10.39,0,0,1,3.13-7.47,10.58,10.58,0,0,1,3.44-2.23,11.32,11.32,0,0,1,8.46,0A10.58,10.58,0,0,1,134,98.58a10.42,10.42,0,0,1,0,14.93,10.87,10.87,0,0,1-3.44,2.21,11.32,11.32,0,0,1-8.46,0,10.87,10.87,0,0,1-3.44-2.21,10.3,10.3,0,0,1-3.13-7.46Zm10.8,5.86a5.27,5.27,0,0,0,4-1.7,6.16,6.16,0,0,0,0-8.35,5.44,5.44,0,0,0-7.92,0,6.16,6.16,0,0,0,0,8.35A5.24,5.24,0,0,0,126.31,111.91Z"/><path class="cls-1" d="M145.9,87.8v28.35h-5.32V89Z"/><path class="cls-1" d="M149.38,106.05a10.19,10.19,0,0,1,.83-4.13,10.4,10.4,0,0,1,2.29-3.34,10.58,10.58,0,0,1,3.44-2.23,11.32,11.32,0,0,1,8.46,0,10.58,10.58,0,0,1,3.44,2.23,10.4,10.4,0,0,1,2.29,3.34,10.72,10.72,0,0,1,0,8.27,10.32,10.32,0,0,1-2.29,3.32,10.87,10.87,0,0,1-3.44,2.21,11.32,11.32,0,0,1-8.46,0,10.87,10.87,0,0,1-3.44-2.21,10.32,10.32,0,0,1-2.29-3.32A10.21,10.21,0,0,1,149.38,106.05Zm10.79,5.86a5.27,5.27,0,0,0,4-1.7,6.16,6.16,0,0,0,0-8.35,5.44,5.44,0,0,0-7.92,0,6.16,6.16,0,0,0,0,8.35A5.27,5.27,0,0,0,160.17,111.91Z"/><path class="cls-1" d="M183.64,116.26a10,10,0,0,1-4-.81,10.29,10.29,0,0,1-6.23-9.55,10,10,0,0,1,.81-4,10.39,10.39,0,0,1,2.22-3.28,10.15,10.15,0,0,1,3.3-2.2,10.4,10.4,0,0,1,4.07-.79,9.92,9.92,0,0,1,2.9.42,10.67,10.67,0,0,1,2.58,1.21V95.92h5.24v20.23a7.63,7.63,0,0,1-2.58,6.17q-2.58,2.18-7.44,2.17A21.14,21.14,0,0,1,180,124a16.34,16.34,0,0,1-3.94-1.36l1.86-4.15a17.19,17.19,0,0,0,3.26,1.22,12.86,12.86,0,0,0,3.19.41,5.51,5.51,0,0,0,3.59-1,3.73,3.73,0,0,0,1.22-3v-1.67a9.2,9.2,0,0,1-5.55,1.82Zm-5-10.36a5.67,5.67,0,0,0,1.69,4.15,5.57,5.57,0,0,0,4.13,1.71,6.86,6.86,0,0,0,2.64-.49,6.45,6.45,0,0,0,2.1-1.34v-8a6,6,0,0,0-2.1-1.34,6.91,6.91,0,0,0-2.6-.49,5.73,5.73,0,0,0-4.15,1.67A5.47,5.47,0,0,0,178.63,105.9Z"/><path class="cls-1" d="M201.73,93.51a3,3,0,1,1,3-3,3,3,0,0,1-3,3Zm2.68,2.41v20.23h-5.32V95.92Z"/><path class="cls-1" d="M226.88,113.62a12.14,12.14,0,0,1-8.19,2.92,11.3,11.3,0,0,1-4.29-.82,10.74,10.74,0,0,1-3.46-2.21,10.32,10.32,0,0,1-2.29-3.32,10.21,10.21,0,0,1-.84-4.14,10.58,10.58,0,0,1,.8-4.09,10.2,10.2,0,0,1,2.19-3.34,10.34,10.34,0,0,1,3.32-2.24,10.49,10.49,0,0,1,4.1-.81,9.65,9.65,0,0,1,4,.83,10,10,0,0,1,3.18,2.27,10.23,10.23,0,0,1,2.1,3.44,12.24,12.24,0,0,1,.76,4.33v1.4H213.17a5.66,5.66,0,0,0,2.1,3.07,5.94,5.94,0,0,0,3.65,1.16,7,7,0,0,0,2.48-.43,5.48,5.48,0,0,0,2-1.2ZM218.1,100a4.77,4.77,0,0,0-3.14,1.1,5.75,5.75,0,0,0-1.83,3H223a5.85,5.85,0,0,0-1.84-2.93A4.62,4.62,0,0,0,218.1,100Z"/><path class="cls-1" d="M230,113.74l2.64-3.53a16.11,16.11,0,0,0,3.38,1.72,9.38,9.38,0,0,0,3.19.57,5.92,5.92,0,0,0,2.85-.59,1.73,1.73,0,0,0,1.07-1.55,1.49,1.49,0,0,0-.6-1.24,4.28,4.28,0,0,0-1.93-.66l-3.88-.58a8.43,8.43,0,0,1-4.56-1.94,5.15,5.15,0,0,1-1.57-3.93,5.57,5.57,0,0,1,2.29-4.66A9.87,9.87,0,0,1,239,95.61a14.56,14.56,0,0,1,4.31.64,15.68,15.68,0,0,1,4,1.88l-2.56,3.42a16.67,16.67,0,0,0-3.18-1.46,10.14,10.14,0,0,0-3.07-.48,4.34,4.34,0,0,0-2.31.54,1.64,1.64,0,0,0-.88,1.44,1.47,1.47,0,0,0,.64,1.26,5,5,0,0,0,2.12.64l3.88.58a8.27,8.27,0,0,1,4.57,1.94,5.06,5.06,0,0,1,1.61,3.85,5.45,5.45,0,0,1-.68,2.66,6.88,6.88,0,0,1-1.85,2.11,8.8,8.8,0,0,1-2.79,1.4,11.83,11.83,0,0,1-3.54.51,17.93,17.93,0,0,1-5.16-.72A12,12,0,0,1,230,113.74Z"/></svg>