<?xml version="1.0" encoding="utf-8"?>
<!-- Generator: Adobe Illustrator 24.0.0, SVG Export Plug-In . SVG Version: 6.00 Build 0)  -->
<svg version="1.1" id="Layer_1" xmlns="http://www.w3.org/2000/svg" xmlns:xlink="http://www.w3.org/1999/xlink" x="0px" y="0px"
	 viewBox="0 0 304 304" style="enable-background:new 0 0 304 304;" xml:space="preserve">
<style type="text/css">
	.st0{fill:#E28A39;}
	.st1{fill:#FFFFFF;}
</style>
<title>Eleos_Logo_Main_Pantone</title>
<path class="st0" d="M302,152c0,82.8-67.2,150-150,150S2,234.8,2,152S69.2,2,152,2S302,69.2,302,152"/>
<path class="st1" d="M80.6,171.9c-2.9,2.4-6.2,4.4-9.8,5.7c-3.6,1.2-7.4,1.9-11.2,1.8c-3.8,0-7.5-0.7-11-2.1
	c-3.3-1.3-6.3-3.2-8.9-5.7c-5.2-5-8.1-11.9-8-19.1c0-3.6,0.6-7.2,2-10.5c1.3-3.2,3.2-6.1,5.6-8.6c2.4-2.5,5.3-4.4,8.5-5.7
	c3.3-1.4,6.9-2.1,10.5-2.1c3.5,0,7,0.7,10.2,2.1c3.1,1.4,5.9,3.4,8.2,5.8c2.4,2.6,4.2,5.5,5.4,8.8c1.3,3.6,2,7.3,1.9,11.1v3.6H45.5
	c0.9,3.2,2.7,5.9,5.4,7.9s6,3.1,9.4,3c2.2,0,4.3-0.4,6.4-1.1c1.9-0.7,3.6-1.7,5.1-3.1L80.6,171.9z M58.1,136.9
	c-2.9-0.1-5.8,0.9-8.1,2.8c-2.3,2-4,4.7-4.7,7.6h25.4c-0.8-2.9-2.5-5.6-4.8-7.5C63.8,137.9,61,136.8,58.1,136.9z"/>
<path class="st1" d="M104.4,105.7v72.7H90.8v-69.7L104.4,105.7z"/>
<path class="st1" d="M225.8,172.2l6.8-9.1c2.7,1.8,5.6,3.3,8.7,4.4c2.6,0.9,5.4,1.4,8.2,1.4c2.5,0.1,5-0.4,7.3-1.5
	c1.8-1,2.7-2.3,2.7-4c0-1.3-0.5-2.4-1.5-3.2c-1.5-1-3.2-1.5-4.9-1.7l-10-1.5c-5.1-0.8-9-2.5-11.7-5c-2.7-2.6-4.2-6.3-4-10.1
	c-0.1-4.7,2.1-9.2,5.9-11.9c3.9-3,9.2-4.5,15.7-4.5c3.7,0,7.5,0.5,11.1,1.6s7.1,2.7,10.3,4.8l-6.6,8.8c-2.6-1.5-5.3-2.8-8.2-3.7
	c-2.5-0.8-5.2-1.2-7.9-1.2c-2.1-0.1-4.1,0.4-5.9,1.4c-1.4,0.7-2.2,2.1-2.2,3.7c-0.1,1.3,0.6,2.5,1.6,3.2c1.7,1,3.5,1.5,5.4,1.6
	l10,1.5c5,0.7,8.9,2.4,11.7,5c2.7,2.5,4.2,6.1,4.1,9.9c0,2.4-0.6,4.7-1.7,6.8c-1.2,2.1-2.8,4-4.7,5.4c-2.2,1.6-4.6,2.8-7.2,3.6
	c-2.9,0.9-6,1.3-9.1,1.3c-4.5,0-8.9-0.6-13.2-1.9C232.5,176.5,228.9,174.6,225.8,172.2z"/>
<path class="st1" d="M221,141.9c-1.4-3.2-3.4-6.1-5.9-8.6s-5.5-4.4-8.8-5.7c-7-2.8-14.7-2.8-21.7,0c-3.3,1.5-6.3,3.7-8.7,6.5
	c-4.1,4.4-8.2,10.4-11.4,14.5c-4.3,5.7-7.9,11-12.7,14.8c-1.8,1.5-3.8,2.6-6,3.5c-2,0.7-4.2,1.1-6.4,1.1c-3.4,0.1-6.7-1-9.4-3
	c-2.6-1.9-4.5-4.7-5.4-7.9h24.2l12-16.2c-1.2-2.7-2.8-5.1-4.8-7.2c-2.3-2.5-5.1-4.5-8.2-5.8c-3.2-1.4-6.7-2.2-10.2-2.1
	c-3.6,0-7.2,0.7-10.5,2.1c-3.2,1.3-6.1,3.3-8.5,5.7c-2.4,2.5-4.4,5.4-5.7,8.6c-1.4,3.3-2,6.9-2,10.5c-0.1,7.2,2.8,14.1,8,19.1
	c2.6,2.4,5.6,4.4,8.9,5.7c3.5,1.4,7.2,2.1,11,2.1c8,0.1,15.7-2.7,21.8-7.9c4.3-3.5,6-6.4,11.8-13.8c4.7-6,8.4-12.2,12.8-16
	c3.3-2.9,6.2-4.4,10.1-4.4c3.9-0.1,7.6,1.5,10.2,4.4c2.8,2.9,4.3,6.8,4.2,10.8c0.1,4-1.4,7.8-4.2,10.7c-2.6,2.8-6.3,4.4-10.2,4.4
	c-4,0-8-2.2-11-4.6c-1.4-1.1-2.7-2.2-3.9-3.5l-7.2,9.6c0.7,0.9,1.5,1.7,2.4,2.6c5.3,5,12.4,7.8,19.7,7.8c3.7,0,7.4-0.7,10.9-2.1
	c3.3-1.3,6.3-3.2,8.8-5.7c5.2-5,8.1-11.9,8-19.1C223.2,148.9,222.5,145.2,221,141.9z M129.3,139.7c2.3-1.9,5.1-2.9,8.1-2.8
	c2.9,0,5.7,1,7.9,2.9c2.3,2,3.9,4.6,4.7,7.5h-25.4C125.3,144.3,127,141.7,129.3,139.7L129.3,139.7z"/>
</svg>
