<svg id="Layer_1" data-name="Layer 1" xmlns="http://www.w3.org/2000/svg" viewBox="0 0 255 88.5"><defs><style>.cls-1{fill:#ee7623;}</style></defs><title>Eleos_Logo_Worm_Pantone</title><path class="cls-1" d="M54.68,74a33.91,33.91,0,0,1-9.94,5.76,33.66,33.66,0,0,1-11.35,1.81,29.17,29.17,0,0,1-11.16-2.12,28.17,28.17,0,0,1-9-5.75,26.5,26.5,0,0,1-6-8.63A26.79,26.79,0,0,1,5.12,54.3,27.54,27.54,0,0,1,7.19,43.65,26.8,26.8,0,0,1,12.9,35a26.39,26.39,0,0,1,8.63-5.8,26.86,26.86,0,0,1,10.65-2.12,24.7,24.7,0,0,1,10.34,2.17,25.63,25.63,0,0,1,8.28,5.9,26.92,26.92,0,0,1,5.45,8.93,31.61,31.61,0,0,1,2,11.26v3.63H19.05a14.82,14.82,0,0,0,5.45,8,15.39,15.39,0,0,0,9.49,3,18.39,18.39,0,0,0,6.46-1.11,14.57,14.57,0,0,0,5.15-3.12ZM31.87,38.45a12.28,12.28,0,0,0-8.17,2.88A14.85,14.85,0,0,0,19,49.05H44.69a15.23,15.23,0,0,0-4.79-7.62A12,12,0,0,0,31.87,38.45Z"/><path class="cls-1" d="M78.76,6.86V80.54H64.93V9.89Z"/><path class="cls-1" d="M201.74,74.28l6.86-9.18a41.56,41.56,0,0,0,8.78,4.49,24.61,24.61,0,0,0,8.28,1.47,15.52,15.52,0,0,0,7.42-1.52c1.85-1,2.77-2.35,2.77-4a3.89,3.89,0,0,0-1.56-3.23,11,11,0,0,0-5-1.71L219.2,59q-7.77-1.2-11.86-5a13.32,13.32,0,0,1-4.09-10.2,14.48,14.48,0,0,1,6-12.11q6-4.55,15.94-4.54a38.13,38.13,0,0,1,11.21,1.66,40.72,40.72,0,0,1,10.39,4.9l-6.66,8.88a42.31,42.31,0,0,0-8.27-3.78,26.1,26.1,0,0,0-8-1.27,11.24,11.24,0,0,0-6,1.42,4.23,4.23,0,0,0-2.27,3.73A3.75,3.75,0,0,0,217.23,46a12.89,12.89,0,0,0,5.5,1.67l10.1,1.51q7.66,1.11,11.86,5.05a13.1,13.1,0,0,1,4.18,10,14.1,14.1,0,0,1-1.76,6.92,17.81,17.81,0,0,1-4.8,5.5,22.78,22.78,0,0,1-7.26,3.63,31.12,31.12,0,0,1-9.19,1.31,46.85,46.85,0,0,1-13.42-1.86A31.34,31.34,0,0,1,201.74,74.28Z"/><path class="cls-1" d="M196.94,43.55A27,27,0,0,0,191,34.87a27.72,27.72,0,0,0-8.93-5.8,29.62,29.62,0,0,0-22,0,25.36,25.36,0,0,0-8.83,6.57c-4.15,4.48-8.34,10.5-11.51,14.72-4.31,5.75-8,11.11-12.86,14.94a23.45,23.45,0,0,1-6.1,3.53,18.39,18.39,0,0,1-6.46,1.11,15.35,15.35,0,0,1-9.49-3,14.77,14.77,0,0,1-5.45-8h24.48L136,42.47a27.37,27.37,0,0,0-4.89-7.35,25.28,25.28,0,0,0-18.62-8.07,26.86,26.86,0,0,0-10.65,2.12A26.49,26.49,0,0,0,93.19,35a26.94,26.94,0,0,0-5.7,8.68A27.54,27.54,0,0,0,85.42,54.3a26.62,26.62,0,0,0,2.17,10.75,26.34,26.34,0,0,0,6,8.63,28.06,28.06,0,0,0,9,5.75,29.09,29.09,0,0,0,11.15,2.12,33.26,33.26,0,0,0,22.12-8c4.37-3.58,6.11-6.48,12-13.94,4.75-6,8.56-12.37,13-16.25C164.09,40.47,167,39,171.05,39a13.72,13.72,0,0,1,10.3,4.44,15.17,15.17,0,0,1,4.24,10.9,15,15,0,0,1-4.24,10.8,13.72,13.72,0,0,1-10.3,4.44c-4,0-8.11-2.19-11.17-4.63A30.91,30.91,0,0,1,156,61.36l-7.28,9.74a29.61,29.61,0,0,0,2.43,2.58,29.06,29.06,0,0,0,39.87,0,26.32,26.32,0,0,0,5.95-8.63,27.71,27.71,0,0,0,0-21.5ZM104,41.33a12.31,12.31,0,0,1,8.18-2.88,12,12,0,0,1,8,3,15.25,15.25,0,0,1,4.8,7.62H99.25A14.84,14.84,0,0,1,104,41.33Z"/></svg>